<svg width="160" height="33" viewBox="0 0 160 33" fill="none" xmlns="http://www.w3.org/2000/svg">
<path d="M38.2176 10.5232C38.2176 13.9441 23.9466 15.6031 13.708 13.6111C10.8986 13.0995 0.86583 10.8289 0 10.6231V4.83172C0.868858 5.03455 10.9016 7.30811 13.708 7.81974C23.9466 9.81175 38.2176 8.15275 38.2176 4.73181V10.5232Z" fill="white"/>
<path d="M38.2176 19.5962C38.2176 23.0171 23.9466 24.6761 13.708 22.6841C10.8986 22.1725 0.86583 19.9019 0 19.6961V13.9047C0.868858 14.1076 10.9016 16.3811 13.708 16.8927C23.9466 18.8848 38.2176 17.2257 38.2176 13.8048V19.5962Z" fill="white"/>
<path d="M38.2176 28.6663C38.2176 32.0872 23.9466 33.7462 13.708 31.7542C10.8986 31.2426 0.86583 28.972 0 28.7662V22.9748C0.868858 23.1776 10.9016 25.4512 13.708 25.9628C23.9466 27.9548 38.2176 26.2958 38.2176 22.8749V28.6663Z" fill="white"/>
<path d="M9.03973 2.90931C11.2346 3.35736 13.8684 3.90229 16.7444 4.36851C26.3351 6.02448 39.9674 2.77308 20.8072 0L9.03973 2.90931Z" fill="white"/>
<path d="M50.2 27.092V8.80664H57.8653C60.6112 8.80664 62.6789 9.51202 64.0684 10.9228C65.461 12.3335 66.1543 14.704 66.1543 18.0341C66.1543 21.1765 65.4671 23.4713 64.0957 24.9183C62.7243 26.3654 60.6475 27.089 57.8623 27.089H50.2V27.092ZM54.0327 24.1403H57.3265C58.4042 24.1403 59.3155 23.9738 60.0511 23.6438C60.7898 23.3138 61.3438 22.7084 61.7131 21.8274C62.0825 20.9464 62.2671 19.684 62.2671 18.0371C62.2671 16.3902 62.0976 15.1308 61.7555 14.262C61.4134 13.3901 60.8836 12.7967 60.1661 12.4728C59.4456 12.1519 58.5011 11.9914 57.3265 11.9914H54.0327V24.1403Z" fill="white"/>
<path d="M72.7146 27.3766C71.8639 27.3766 71.0738 27.2222 70.3442 26.9074C69.6146 26.5956 69.0273 26.1324 68.5823 25.5148C68.1372 24.9002 67.9162 24.1282 67.9162 23.2019C67.9162 21.8759 68.3855 20.8163 69.3209 20.0231C70.2564 19.2269 71.6429 18.8303 73.4806 18.8303H77.4555V18.461C77.4555 17.6285 77.2224 17.0412 76.7592 16.6991C76.296 16.36 75.3636 16.1874 73.9619 16.1874C72.4301 16.1874 70.9527 16.4236 69.5328 16.8958V14.1984C70.1565 13.9532 70.9194 13.7504 71.8185 13.5869C72.7177 13.4265 73.6955 13.3447 74.7581 13.3447C76.7834 13.3447 78.3486 13.7564 79.4566 14.5799C80.5646 15.4033 81.1186 16.7233 81.1186 18.5397V27.086H77.7976L77.5978 25.866C77.068 26.3382 76.4141 26.7076 75.6391 26.974C74.861 27.2434 73.8892 27.3766 72.7146 27.3766ZM73.7651 24.8488C74.6158 24.8488 75.3545 24.7065 75.9812 24.4219C76.6048 24.1373 77.0983 23.7771 77.4585 23.3442V21.2159H73.5683C72.0728 21.2159 71.3251 21.8305 71.3251 23.0626C71.322 24.2554 72.1364 24.8488 73.7651 24.8488Z" fill="white"/>
<path d="M89.4045 27.3766C87.8515 27.3766 86.7011 26.9709 85.9533 26.1565C85.2056 25.3422 84.8332 24.2342 84.8332 22.8355V16.9503H82.932V13.9986H84.8332V9.84503L88.6659 8.80664V13.9986H91.9597V16.9503H88.6659V22.5782C88.6659 23.3169 88.8354 23.8224 89.1775 24.0979C89.5166 24.3734 90.0463 24.5097 90.7669 24.5097C91.2967 24.5097 91.8446 24.4158 92.4138 24.2251V26.865C91.999 27.0345 91.5419 27.1616 91.0514 27.2494C90.558 27.3342 90.01 27.3766 89.4045 27.3766Z" fill="white"/>
<path d="M98.847 27.3766C97.9963 27.3766 97.2061 27.2222 96.4765 26.9074C95.7469 26.5956 95.1596 26.1324 94.7146 25.5148C94.2696 24.9002 94.0486 24.1282 94.0486 23.2019C94.0486 21.8759 94.5178 20.8163 95.4533 20.0231C96.3917 19.2269 97.7753 18.8303 99.6129 18.8303H103.588V18.461C103.588 17.6285 103.355 17.0412 102.892 16.6991C102.428 16.36 101.496 16.1874 100.094 16.1874C98.5624 16.1874 97.085 16.4236 95.6652 16.8958V14.1984C96.2888 13.9532 97.0517 13.7504 97.9508 13.5869C98.85 13.4265 99.8278 13.3447 100.89 13.3447C102.916 13.3447 104.484 13.7564 105.589 14.5799C106.697 15.4033 107.251 16.7233 107.251 18.5397V27.086H103.93L103.73 25.866C103.2 26.3382 102.546 26.7076 101.771 26.974C100.996 27.2434 100.022 27.3766 98.847 27.3766ZM99.9005 24.8488C100.751 24.8488 101.49 24.7065 102.113 24.4219C102.737 24.1373 103.231 23.7771 103.591 23.3442V21.2159H99.7007C98.2051 21.2159 97.4574 21.8305 97.4574 23.0626C97.4574 24.2554 98.2717 24.8488 99.9005 24.8488Z" fill="white"/>
<path d="M115.328 27.3766C114.287 27.3796 113.345 27.2464 112.449 27.095C111.544 26.9406 110.823 26.6894 110.275 26.4835V23.8345C110.938 24.101 111.686 24.1797 112.519 24.3219C113.351 24.4642 114.117 24.5339 114.819 24.5339C115.767 24.5339 116.324 24.4037 116.757 24.2009C117.123 24.0283 117.405 23.7437 117.405 23.3471C117.405 22.893 117.108 22.563 116.512 22.3542C115.915 22.1453 115.031 21.8516 113.857 21.4732C112.625 21.0584 111.68 20.5559 111.017 19.9686C110.354 19.3813 110.024 18.5124 110.024 17.356C110.024 16.0693 110.493 15.0794 111.429 14.3891C112.367 13.6989 113.875 13.3538 115.958 13.3538C116.79 13.3538 117.438 13.4113 118.174 13.5415C118.915 13.6747 119.675 13.9259 120.187 14.0955V16.7898C119.675 16.5446 119.012 16.363 118.437 16.257C117.741 16.1299 117.147 16.0875 116.581 16.0875C115.767 16.0875 115.119 16.145 114.635 16.257C114.153 16.369 113.86 16.7474 113.86 17.1259C113.86 17.5436 114.172 18.0068 114.692 18.1764C115.213 18.3459 116.021 18.6032 117.12 18.9423C118.198 19.2632 119.04 19.6144 119.648 19.9928C120.254 20.3712 120.68 20.8223 120.926 21.34C121.171 21.8607 121.295 22.5086 121.295 23.2866C121.292 26.0143 119.303 27.3675 115.328 27.3766Z" fill="white"/>
<path d="M123.502 27.0769V8.80969H127.335V27.0769H123.502Z" fill="white"/>
<path d="M134.437 27.3766C133.586 27.3766 132.796 27.2222 132.066 26.9074C131.337 26.5956 130.749 26.1324 130.304 25.5148C129.859 24.9002 129.638 24.1282 129.638 23.2019C129.638 21.8759 130.108 20.8163 131.043 20.0231C131.982 19.2269 133.365 18.8303 135.203 18.8303H139.178V18.461C139.178 17.6285 138.945 17.0412 138.481 16.6991C138.018 16.36 137.086 16.1874 135.684 16.1874C134.152 16.1874 132.675 16.4236 131.255 16.8958V14.1984C131.879 13.9532 132.642 13.7504 133.541 13.5869C134.44 13.4265 135.418 13.3447 136.48 13.3447C138.506 13.3447 140.074 13.7564 141.179 14.5799C142.287 15.4033 142.841 16.7233 142.841 18.5397V27.086H139.52L139.32 25.866C138.79 26.3382 138.136 26.7076 137.361 26.974C136.586 27.2434 135.611 27.3766 134.437 27.3766ZM135.49 24.8488C136.341 24.8488 137.08 24.7065 137.703 24.4219C138.327 24.1373 138.82 23.7771 139.181 23.3442V21.2159H135.291C133.795 21.2159 133.047 21.8305 133.047 23.0626C133.047 24.2554 133.862 24.8488 135.49 24.8488Z" fill="white"/>
<path d="M153.842 27.3766C152.895 27.3766 152.071 27.2494 151.372 26.9921C150.673 26.7378 150.028 26.3533 149.441 25.8417L149.241 27.092H145.92V8.80664H149.752V14.371C150.3 14.0289 150.915 13.7746 151.596 13.605C152.277 13.4355 152.989 13.3477 153.727 13.3477C155.659 13.3477 157.185 13.8926 158.311 14.9795C159.437 16.0693 160 17.8222 160 20.2471C160 22.672 159.446 24.4642 158.338 25.6268C157.233 26.7953 155.734 27.3766 153.842 27.3766ZM152.762 24.5672C153.991 24.5672 154.856 24.2069 155.359 23.4894C155.862 22.7689 156.113 21.6912 156.113 20.2532C156.113 18.7576 155.843 17.7041 155.305 17.0865C154.766 16.472 153.909 16.1632 152.734 16.1632C152.147 16.1632 151.593 16.2479 151.072 16.4175C150.552 16.587 150.113 16.8352 149.752 17.1562V23.3471C150.131 23.7437 150.579 24.0465 151.1 24.2553C151.62 24.4612 152.174 24.5672 152.762 24.5672Z" fill="white"/>
</svg>
